<svg width="989" height="989" viewBox="0 0 989 989" fill="none" xmlns="http://www.w3.org/2000/svg">
<path d="M505.501 244.906C491.884 249.307 479.379 261.993 478.545 271.572C477.99 284.258 479.379 291.506 483.547 295.39C487.438 298.755 488.272 298.496 492.996 293.319C495.775 289.953 498.832 288.659 499.943 290.212C500.777 291.506 510.781 299.273 522.175 307.299C560.803 334.223 581.089 361.666 587.759 396.098C598.875 454.089 560.247 506.126 492.44 524.766C469.653 531.238 464.095 548.066 482.714 555.315C487.716 557.386 501.055 561.528 512.449 564.635C561.636 578.097 586.091 602.433 589.982 640.749C591.649 658.612 591.927 659.13 599.708 659.906C604.988 660.683 609.713 658.871 614.993 654.47C628.887 642.302 640.281 638.419 662.513 638.419C680.02 638.419 685.856 639.713 699.473 646.185C717.259 654.47 731.154 667.155 740.88 684.242C746.438 693.821 747.272 698.999 746.994 721.263C746.716 738.609 745.048 751.295 741.991 760.097C736.156 775.112 719.76 806.179 712.257 816.276C700.863 831.033 707.81 832.586 727.541 819.641C743.659 809.027 756.72 806.179 768.114 810.58C787.289 818.088 791.179 840.094 778.118 866.759C769.225 884.623 769.781 889.801 780.897 892.389C787.011 893.943 789.79 892.907 794.792 887.471C803.685 877.892 830.918 836.469 846.203 809.286C891.5 729.03 915.955 624.956 907.618 545.218C906.229 530.979 905.673 518.035 906.229 516.223C910.953 504.573 934.574 523.73 955.972 556.351C968.477 575.508 975.425 578.615 984.595 570.072C990.153 564.894 990.153 564.117 986.263 555.574C979.038 539.005 950.97 494.217 929.016 463.668C892.889 413.702 828.14 352.604 784.232 327.233C775.339 322.055 768.114 316.878 768.114 315.324C768.114 311.959 788.4 315.065 815.912 322.832C843.146 330.34 850.371 330.599 854.262 324.127C860.376 313.253 853.428 308.334 811.466 294.095C782.564 284.258 735.878 273.125 701.419 267.947C668.071 262.77 594.428 260.699 558.302 263.805C541.628 265.359 527.455 266.135 526.899 265.876C524.676 263.805 530.234 256.815 536.348 254.226C540.794 252.414 543.017 249.566 542.462 246.719C541.35 240.764 520.786 239.729 505.501 244.906ZM654.176 345.873C703.92 379.788 754.219 435.708 782.842 488.521C797.015 514.928 811.466 555.056 818.691 588.712C823.693 611.753 824.805 626.769 825.083 663.013C825.083 687.867 823.971 715.309 822.859 723.852L820.358 739.127L811.466 714.532C798.96 679.841 781.453 652.399 759.221 631.688C731.431 606.316 701.974 593.372 661.957 589.23L645.839 587.676L652.509 579.392C663.347 565.93 673.629 544.701 679.743 523.73C686.412 500.172 687.524 455.125 682.244 431.307C675.574 402.57 656.955 365.29 636.946 341.213C632.222 336.035 629.721 331.634 631.111 331.634C632.222 331.634 642.782 338.107 654.176 345.873Z" fill="#111111"/>
<path d="M505.501 244.906C491.884 249.307 479.379 261.993 478.545 271.572C477.99 284.258 479.379 291.506 483.547 295.39C487.438 298.755 488.272 298.496 492.996 293.319C495.775 289.953 498.832 288.659 499.943 290.212C500.777 291.506 510.781 299.273 522.175 307.299C560.803 334.223 581.089 361.666 587.759 396.098C598.875 454.089 560.247 506.126 492.44 524.766C469.653 531.238 464.095 548.066 482.714 555.315C487.716 557.386 501.055 561.528 512.449 564.635C561.636 578.097 586.091 602.433 589.982 640.749C591.649 658.612 591.927 659.13 599.708 659.906C604.988 660.683 609.713 658.871 614.993 654.47C628.887 642.302 640.281 638.419 662.513 638.419C680.02 638.419 685.856 639.713 699.473 646.185C717.259 654.47 731.154 667.155 740.88 684.242C746.438 693.821 747.272 698.999 746.994 721.263C746.716 738.609 745.048 751.295 741.991 760.097C736.156 775.112 719.76 806.179 712.257 816.276C700.863 831.033 707.81 832.586 727.541 819.641C743.659 809.027 756.72 806.179 768.114 810.58C787.289 818.088 791.179 840.094 778.118 866.759C769.225 884.623 769.781 889.801 780.897 892.389C787.011 893.943 789.79 892.907 794.792 887.471C803.685 877.892 830.918 836.469 846.203 809.286C891.5 729.03 915.955 624.956 907.618 545.218C906.229 530.979 905.673 518.035 906.229 516.223C910.953 504.573 934.574 523.73 955.972 556.351C968.477 575.508 975.425 578.615 984.595 570.072C990.153 564.894 990.153 564.117 986.263 555.574C979.038 539.005 950.97 494.217 929.016 463.668C892.889 413.702 828.14 352.604 784.232 327.233C775.339 322.055 768.114 316.878 768.114 315.324C768.114 311.959 788.4 315.065 815.912 322.832C843.146 330.34 850.371 330.599 854.262 324.127C860.376 313.253 853.428 308.334 811.466 294.095C782.564 284.258 735.878 273.125 701.419 267.947C668.071 262.77 594.428 260.699 558.302 263.805C541.628 265.359 527.455 266.135 526.899 265.876C524.676 263.805 530.234 256.815 536.348 254.226C540.794 252.414 543.017 249.566 542.462 246.719C541.35 240.764 520.786 239.729 505.501 244.906ZM654.176 345.873C703.92 379.788 754.219 435.708 782.842 488.521C797.015 514.928 811.466 555.056 818.691 588.712C823.693 611.753 824.805 626.769 825.083 663.013C825.083 687.867 823.971 715.309 822.859 723.852L820.358 739.127L811.466 714.532C798.96 679.841 781.453 652.399 759.221 631.688C731.431 606.316 701.974 593.372 661.957 589.23L645.839 587.676L652.509 579.392C663.347 565.93 673.629 544.701 679.743 523.73C686.412 500.172 687.524 455.125 682.244 431.307C675.574 402.57 656.955 365.29 636.946 341.213C632.222 336.035 629.721 331.634 631.111 331.634C632.222 331.634 642.782 338.107 654.176 345.873Z" stroke="#111111"/>
<path fill-rule="evenodd" clip-rule="evenodd" d="M324.179 110.903C306.671 145.853 263.319 195.56 232.195 216.271L223.58 221.708V214.2C223.58 205.139 214.132 192.971 210.241 196.854C208.852 198.149 206.073 203.844 204.127 209.54C199.959 221.449 187.453 234.911 166.333 250.186C151.883 260.541 140.211 275.816 140.211 284.618C140.211 286.689 129.929 295.491 117.423 304.294C104.64 313.096 92.1348 321.898 89.6338 323.969C85.4653 326.817 84.6316 331.736 84.6316 348.564C84.6316 372.382 85.4653 371.087 52.1177 403.448C32.6649 422.347 25.9954 425.972 10.7111 425.972C1.26257 425.972 1.26257 425.972 1.26257 437.622C1.26257 456.003 14.6016 475.679 32.6649 484.481C40.7239 488.623 40.1681 488.882 44.6145 475.679C45.1703 473.866 47.9492 472.831 50.4503 473.349C53.2293 474.125 59.8988 475.42 65.1788 476.196L74.9052 477.75L74.0716 466.1L72.96 454.191L86.8548 456.003L101.028 457.556L102.973 447.977C106.03 432.962 120.48 421.83 147.158 414.322C159.386 410.697 170.78 407.849 172.169 407.849C173.281 407.849 166.889 412.509 157.441 418.464C127.706 437.104 120.48 444.094 118.813 456.262L117.146 467.135L102.973 467.912C90.1896 468.689 88.8001 469.206 88.8001 474.643C88.8001 479.821 92.1349 481.892 112.421 489.4C127.428 494.836 137.432 497.166 140.211 495.872C142.434 494.836 151.883 484.74 161.053 473.607C190.788 437.622 214.409 425.195 242.477 430.632C250.814 432.185 258.595 433.221 259.151 432.444C259.985 431.667 259.151 428.302 257.206 424.936C245.256 404.225 274.991 399.306 310.84 416.134C320.288 420.535 321.4 422.088 319.732 428.561C316.676 443.058 306.671 458.592 287.496 478.526C232.473 535.482 215.243 568.361 209.963 626.611C208.852 640.073 206.906 651.982 206.073 653.018C202.738 655.866 193.011 645.51 190.232 635.931C186.62 623.505 186.62 609.783 190.788 595.803C193.845 584.93 193.567 583.377 185.23 568.102C180.228 559.3 176.338 550.498 176.338 548.685C176.338 542.731 139.099 544.025 124.649 550.498C108.531 557.747 104.64 562.407 114.645 562.407C118.813 562.407 129.095 564.219 137.71 566.549C150.493 570.173 153.828 572.244 155.217 577.422C157.996 587.26 154.94 589.59 145.491 585.189C137.71 581.306 136.598 581.564 119.647 590.367C110.198 595.286 99.9159 602.017 96.8591 604.864L91.579 610.301L109.087 608.489C126.038 606.677 127.15 606.936 134.931 613.926C144.102 622.21 145.491 626.87 137.432 622.728C132.986 620.657 130.207 621.175 123.815 625.576C116.034 631.012 115.2 631.012 108.531 626.87C104.64 624.54 99.916 622.728 97.6928 622.728C91.0233 622.728 73.5158 642.404 67.9578 655.866C59.6209 676.577 60.7325 679.166 73.2379 668.551C84.6316 658.972 89.078 657.678 118.813 655.089C134.931 653.536 138.822 654.054 143.546 658.196C153.272 666.48 154.662 671.399 149.104 676.577C145.769 679.684 143.268 687.191 141.878 696.77C140.767 705.055 137.988 713.857 135.487 716.446L149.104 716.705C157.719 712.304 165.5 706.349 168.001 701.689C170.224 697.288 172.169 693.664 172.169 693.405C172.169 693.146 182.173 696.253 194.123 700.136L241.643 697.547L239.698 690.816L254.705 694.44C277.214 700.136 308.339 697.547 329.737 687.968C339.463 683.826 350.301 677.871 354.192 675.024C358.082 671.917 361.695 669.587 362.528 669.328C363.362 669.328 446.943 658.379 461.693 662.079C461.693 654.83 522.319 697.806 523.709 697.806C529.544 697.806 548.719 708.42 552.054 713.339C552.054 713.339 560.391 710.75 551.22 690.557C543.717 674.247 531.212 660.785 517.317 653.795C507.591 648.876 503.422 644.733 498.142 633.86L491.195 620.139H504.256C511.481 620.139 521.763 622.469 527.877 625.317C533.991 628.165 538.993 630.495 539.549 630.495C542.05 630.495 532.879 614.443 525.098 604.864C513.149 590.884 500.365 581.823 487.026 578.458C477.856 576.128 476.466 574.833 475.91 567.584C475.355 552.31 476.466 544.025 484.247 515.806L491.751 487.846L501.477 489.4C506.757 490.176 517.317 493.801 525.098 497.166C532.601 500.532 539.271 503.121 539.549 502.603C540.105 502.085 537.881 494.836 534.547 486.552C530.1 475.679 523.709 467.135 512.037 456.262C496.753 441.764 495.919 440.47 495.919 428.302C495.919 416.134 496.197 415.616 503.978 415.616C515.094 415.616 529.544 420.535 537.326 427.007L543.717 432.444L541.772 425.972C538.437 414.84 526.21 395.682 518.429 388.951C514.538 385.326 505.09 379.113 497.308 374.97C487.304 369.534 482.858 365.133 480.913 359.178C479.523 354.518 479.245 349.858 480.357 348.823C481.468 347.787 492.306 347.01 504.256 347.269C524.82 347.528 525.932 347.269 523.431 342.609C518.429 334.066 493.974 318.015 480.357 314.649C472.298 312.578 462.016 307.4 455.346 301.705C449.232 296.268 442.285 291.608 440.062 290.831C430.335 287.725 458.403 273.227 473.965 273.227C483.414 273.227 482.302 268.049 471.742 263.648C463.961 260.541 453.401 259.247 430.057 259.247C396.71 258.988 395.32 258.211 401.712 246.561C403.379 243.454 408.104 237.5 412.272 233.358L419.497 226.109L399.489 227.145C375.312 228.18 375.59 227.144 404.213 205.916C438.95 180.027 475.91 165.529 534.269 155.173C537.881 154.396 540.382 152.066 540.382 149.219C540.382 140.158 528.711 139.122 486.748 145.076C442.563 151.29 393.931 168.894 342.242 197.631C311.673 214.718 270.823 235.17 270.823 233.358C270.823 232.581 279.159 222.226 289.72 210.317C310.562 185.981 327.791 157.244 338.907 128.766C347.522 106.761 347.244 96.1463 338.629 95.1108C333.627 94.3341 331.126 97.4408 324.179 110.903ZM126.872 378.854C146.881 380.148 155.217 374.712 166.889 353.224C172.169 343.127 176.338 334.584 175.782 334.066C174.114 333.03 155.217 344.163 142.434 354C135.209 359.437 125.482 365.392 120.758 366.945C107.419 371.087 110.754 377.818 126.872 378.854Z" fill="#111111"/>
<path d="M598.03 892.221C586.427 892.221 577.982 889.357 572.695 883.629C567.554 877.754 564.984 870.337 564.984 861.378C564.984 858.881 565.131 856.458 565.425 854.108C565.865 851.611 566.306 849.188 566.747 846.838L575.118 806.742H561.019L566.306 780.746L582.168 779.424L591.861 751.225H621.382L616.095 779.424H639.888L634.601 806.742H609.926L601.555 848.16C601.408 849.482 601.261 850.73 601.114 851.905C601.114 852.933 601.114 854.035 601.114 855.21C601.114 861.672 604.639 864.903 611.689 864.903C613.011 864.903 614.332 864.683 615.654 864.242C616.976 863.801 618.298 863.287 619.62 862.7L625.788 887.374C622.704 888.402 618.812 889.43 614.112 890.458C609.559 891.633 604.198 892.221 598.03 892.221Z" fill="#111111"/>
<path d="M482.42 892.221C473.608 892.221 465.897 890.312 459.288 886.493C452.679 882.675 447.539 877.314 443.867 870.411C440.195 863.508 438.359 855.504 438.359 846.398C438.359 835.676 440.122 826.056 443.647 817.538C447.318 809.019 452.165 801.749 458.187 795.727C464.208 789.559 470.891 784.859 478.235 781.628C485.725 778.397 493.289 776.781 500.926 776.781C509.738 776.781 517.449 778.69 524.058 782.509C530.667 786.328 535.808 791.688 539.48 798.591C543.151 805.494 544.987 813.499 544.987 822.605C544.987 833.326 543.151 842.946 539.48 851.465C535.955 859.983 531.181 867.327 525.16 873.495C519.138 879.517 512.382 884.143 504.892 887.374C497.548 890.606 490.058 892.221 482.42 892.221ZM486.386 864.022C490.645 864.022 494.464 862.26 497.842 858.735C501.367 855.21 504.157 850.363 506.213 844.195C508.27 838.026 509.298 830.976 509.298 823.045C509.298 817.464 508.27 813.058 506.213 809.827C504.304 806.596 501.22 804.98 496.961 804.98C492.701 804.98 488.809 806.743 485.284 810.267C481.906 813.792 479.189 818.639 477.133 824.808C475.077 830.976 474.049 838.026 474.049 845.957C474.049 851.391 475.077 855.797 477.133 859.175C479.189 862.406 482.273 864.022 486.386 864.022Z" fill="#111111"/>
<path d="M402.041 892.221C393.082 892.221 386.619 890.091 382.654 885.832C378.835 881.426 376.926 875.478 376.926 867.987C376.926 865.784 377.073 863.508 377.366 861.158C377.66 858.808 378.101 856.091 378.688 853.007L402.041 736.245H437.29L413.497 854.328C413.35 855.357 413.203 856.164 413.056 856.752C413.056 857.339 413.056 857.927 413.056 858.514C413.056 860.57 413.497 862.039 414.378 862.92C415.406 863.655 416.434 864.022 417.462 864.022C418.196 864.022 418.784 864.022 419.225 864.022C419.812 863.875 420.546 863.728 421.428 863.581L420.106 889.577C418.196 890.165 415.7 890.752 412.615 891.34C409.531 891.927 406.006 892.221 402.041 892.221Z" fill="#111111"/>
<path d="M252.42 889.577L281.059 746.378H328.205C337.751 746.378 346.343 747.7 353.981 750.344C361.618 752.841 367.64 756.953 372.046 762.681C376.599 768.409 378.875 776.046 378.875 785.593C378.875 796.021 377.039 804.906 373.367 812.25C369.843 819.593 364.922 825.542 358.607 830.095C352.292 834.501 345.095 837.732 337.017 839.788C328.939 841.844 320.421 842.872 311.462 842.872H296.921L287.669 889.577H252.42ZM302.649 815.114H315.647C324.753 815.114 331.73 813.058 336.576 808.945C341.57 804.833 344.067 798.811 344.067 790.88C344.067 785.152 342.231 780.966 338.559 778.323C334.887 775.532 329.82 774.137 323.358 774.137H310.58L302.649 815.114Z" fill="#111111"/>
<path d="M169.349 892.221C159.656 892.221 152.092 888.696 146.658 881.646C141.224 874.597 138.507 864.609 138.507 851.685C138.507 841.257 140.122 831.49 143.353 822.384C146.584 813.278 150.917 805.347 156.351 798.591C161.932 791.688 168.174 786.328 175.077 782.509C182.127 778.69 189.471 776.781 197.108 776.781C201.808 776.781 206.287 778.029 210.547 780.526C214.953 782.876 218.11 786.181 220.02 790.44H220.46L225.307 779.425H253.506L231.476 889.577H202.836V875.919H202.395C197.548 880.912 192.114 884.878 186.093 887.815C180.218 890.752 174.637 892.221 169.349 892.221ZM185.211 863.581C188.149 863.581 191.38 862.627 194.905 860.717C198.577 858.808 201.808 854.916 204.598 849.041L211.648 813.792C210.326 810.855 208.49 808.725 206.14 807.403C203.937 806.082 201.808 805.421 199.752 805.421C195.492 805.421 191.453 807.183 187.635 810.708C183.963 814.233 180.952 819.153 178.602 825.469C176.252 831.784 175.077 839.054 175.077 847.279C175.077 853.007 175.959 857.193 177.721 859.836C179.63 862.333 182.127 863.581 185.211 863.581Z" fill="#111111"/>
<path d="M-0.00012207 889.577L28.6396 746.378H62.1261C82.2473 746.378 97.9624 750.931 109.271 760.037C120.727 769.143 126.455 783.39 126.455 802.777C126.455 822.164 122.93 838.319 115.881 851.244C108.978 864.022 99.5046 873.642 87.4612 880.104C75.5647 886.419 62.1261 889.577 47.1453 889.577H-0.00012207ZM40.9767 861.378H46.2641C54.1951 861.378 61.4651 859.542 68.0743 855.87C74.8303 852.199 80.1911 846.25 84.1566 838.026C88.269 829.801 90.3252 818.786 90.3252 804.98C90.3252 793.671 87.5346 785.813 81.9536 781.407C76.5194 776.854 69.6164 774.578 61.2448 774.578H58.1606L40.9767 861.378Z" fill="#111111"/>
</svg>
