<svg width="265" height="207" viewBox="0 0 265 207" fill="none" xmlns="http://www.w3.org/2000/svg">
<path d="M52.1189 14.1733C84.2789 -4.40001 126.412 -3.25335 157.612 16.8533C182.946 32.4 208.519 47.5733 233.546 63.6C243.839 70.4 256.266 75.0933 263.052 86.04C259.586 87.9067 256.132 89.8 252.639 91.6133C253.226 99.3733 251.852 107.32 253.439 114.947C256.066 117.64 259.586 119.173 262.786 121.053C257.892 130.053 248.212 134.147 240.012 139.427C212.999 156.587 185.652 173.213 158.292 189.787C146.226 197.28 132.812 202.64 118.759 204.827C92.8923 209.067 65.5323 202.787 44.0389 187.787C25.6789 175.08 11.7056 156.16 4.90561 134.893C-2.08106 113.4 -1.56106 89.5867 6.18561 68.3733C14.4123 45.6133 31.0256 26.0267 52.1189 14.1733ZM45.8389 25.3333C28.4389 37.84 15.4923 56.3867 9.67894 77.0133C4.35894 95.2933 4.67894 115.133 10.6656 133.2C18.0256 156.707 35.0656 176.8 56.6656 188.493C74.8123 198.533 96.1456 201.76 116.612 199.187C106.479 198.067 96.1856 197.2 86.5456 193.627C62.8123 185.667 42.4789 167.92 31.6523 145.307C21.7989 125.467 19.4523 102.12 24.8123 80.6667C29.1989 61.96 39.7456 44.96 54.1589 32.32C72.3323 15.64 97.2523 7.65332 121.706 8.31999C117.999 7.93332 114.306 7.47999 110.586 7.19999C87.7589 5.11999 64.3456 11.8667 45.8389 25.3333ZM76.5589 24.0267C56.3189 34.0933 40.3989 52.2933 32.8923 73.5867C27.5989 88.08 26.6523 103.96 29.0789 119.133C32.9323 141.853 46.1856 162.853 65.0123 176.133C82.5589 188.853 105.092 194.947 126.626 191.933C116.652 189.827 106.386 188.48 97.0123 184.227C71.2789 173.36 51.4923 149.573 45.6923 122.227C41.6523 103.213 43.9056 82.84 52.4789 65.36C62.4523 44.6533 80.8789 28.1867 102.652 20.76C110.999 17.7867 119.866 16.8667 128.479 14.9733C110.772 13.0133 92.4123 15.6667 76.5589 24.0267ZM66.9323 53.04C51.4256 72.64 45.6523 99.5467 52.0256 123.747C57.2789 144.987 71.6123 163.693 90.5723 174.56C106.412 183.813 125.359 187.08 143.466 184.613C138.532 183.493 133.546 182.68 128.599 181.68C101.079 176.133 77.7056 154.547 69.4256 127.8C63.9456 110.56 64.4389 91.4 71.0923 74.5467C79.5456 52.3733 98.4656 34.5067 121.066 27.2933C128.706 24.84 136.732 24.08 144.639 22.9067C115.746 17.64 84.8123 29.8533 66.9323 53.04ZM82.3056 64.4933C74.7189 76.8533 70.7456 91.4 71.3323 105.92C71.8123 128.76 83.7189 151 102.399 164.147C118.266 175.4 138.746 180.667 157.959 176.64C148.826 175.16 139.439 174.093 130.972 170.08C111.239 161.56 95.8656 143.813 90.2256 123.08C85.6789 107.427 86.8523 90.3067 93.2523 75.3333C100.292 57.9867 114.599 43.9067 131.799 36.64C139.199 33.4533 147.212 32.2267 154.919 30.0533C126.719 25.1333 96.9056 40.2133 82.3056 64.4933ZM113.919 54.6933C100.692 67.2667 92.7456 85.3867 92.9589 103.68C92.9589 121.267 100.106 138.827 112.772 151.08C127.412 166.107 149.506 173.373 170.212 169.907C161.799 166.92 152.759 165.72 144.799 161.533C133.026 155.32 122.999 145.613 116.906 133.747C109.652 120.84 108.572 105.48 110.652 91.08C114.399 70.7867 128.732 52.92 147.412 44.3067C155.372 40.5733 164.159 39.4267 172.666 37.5733C151.812 33.44 129.279 40.0133 113.919 54.6933ZM131.599 61.76C120.906 72.9067 114.599 88.2133 114.439 103.667C114.959 122.52 123.972 141.427 139.706 152.227C151.146 160.173 165.852 165.64 179.786 161.92C170.332 157.707 159.999 154.773 152.159 147.68C134.159 133.307 126.706 107.32 134.292 85.5733C138.106 72.8533 147.252 62.3867 158.012 54.92C164.972 50.2667 173.279 48.5467 180.986 45.5867C177.812 44.4667 174.519 43.1333 171.079 43.44C156.372 44.8267 141.919 51.04 131.599 61.76ZM149.479 68.96C134.612 85.4133 132.519 111.627 143.879 130.533C152.252 144.653 167.546 154.373 183.932 155.827C187.492 148.947 191.372 142.173 193.852 134.8C199.346 120.773 199.066 105.453 198.186 90.68C196.919 78.7867 192.626 67.36 187.079 56.8267C185.599 54.8133 184.612 51.1467 181.492 51.6C169.106 52.8533 157.706 59.7867 149.479 68.96ZM209.972 80.92C210.812 88.4933 212.266 96.0267 212.292 103.667C212.239 111.293 210.786 118.813 209.972 126.373C214.319 111.6 214.346 95.6933 209.972 80.92ZM217.892 84.7333C219.132 96.8933 219.399 109.107 217.999 121.267C220.839 109.293 220.652 96.6933 217.892 84.7333ZM231.439 84.8533C232.239 95.7467 232.679 106.653 232.679 117.573C235.626 106.827 235.012 95.36 231.439 84.8533ZM226.186 92.4667C225.586 99.9067 225.586 107.4 226.186 114.84C227.439 107.44 227.452 99.8533 226.186 92.4667Z" fill="#111111"/>
<path d="M203.852 71L205.835 134C205.835 134 258.852 135 262.852 121C266.852 107 263.852 86 262.852 86C261.852 86 203.852 71 203.852 71Z" fill="#111111"/>
</svg>
