<svg width="300" height="300" viewBox="0 0 300 300" fill="none" xmlns="http://www.w3.org/2000/svg">
<path d="M22.8575 286.292C18.6938 287.123 15.0452 287.538 11.9117 287.538H9.65811C6.73921 287.538 4.39981 286.687 2.63988 284.984C0.879961 283.28 0 281.017 0 278.192V265.73C0 262.615 0.901424 260.185 2.70427 258.44C4.55004 256.654 7.08261 255.761 10.302 255.761H34.1253V290.654C34.1253 293.478 33.2454 295.742 31.4854 297.445C29.7255 299.148 27.3861 300 24.4672 300C17.728 300 10.2161 299.585 1.93162 298.754V290.654C10.1303 291.277 16.3544 291.588 20.604 291.588C21.2478 291.588 21.7844 291.381 22.2137 290.965C22.6429 290.55 22.8575 290.031 22.8575 289.407V286.292ZM15.131 279.126C17.8353 279.126 20.4108 278.919 22.8575 278.503V264.172H13.8433C12.1263 264.172 11.2678 265.003 11.2678 266.665V276.946C11.2678 277.569 11.4824 278.088 11.9117 278.503C12.3409 278.919 12.8775 279.126 13.5214 279.126H15.131Z" fill="#111111"/>
<path d="M54.093 280.684C56.368 280.684 58.9435 280.269 61.8194 279.438V275.699H52.4833C51.8394 275.699 51.3028 275.907 50.8736 276.323C50.4443 276.738 50.2297 277.257 50.2297 277.88V278.503C50.2297 279.126 50.4443 279.646 50.8736 280.061C51.3028 280.477 51.8394 280.684 52.4833 280.684H54.093ZM42.1813 256.384C50.0365 255.553 57.1192 255.137 63.4291 255.137C66.348 255.137 68.6874 255.989 70.4473 257.692C72.2073 259.395 73.0872 261.659 73.0872 264.484V288.784H63.1072L62.4633 285.669C60.4458 286.957 58.364 287.912 56.2177 288.535C54.1144 289.117 52.333 289.407 50.8736 289.407H48.62C45.7011 289.407 43.3617 288.556 41.6018 286.853C39.8419 285.15 38.9619 282.886 38.9619 280.061V277.257C38.9619 274.433 39.8419 272.169 41.6018 270.466C43.3617 268.762 45.7011 267.911 48.62 267.911H61.8194V265.418C61.8194 264.795 61.6048 264.276 61.1756 263.861C60.7463 263.445 60.2098 263.238 59.5659 263.238C56.7758 263.238 53.6852 263.362 50.2941 263.612C46.946 263.861 44.2417 264.048 42.1813 264.172V256.384Z" fill="#111111"/>
<path d="M101.722 255.137C105.199 255.137 107.882 256.384 109.77 258.876C111.745 257.588 113.87 256.654 116.145 256.072C118.463 255.449 120.523 255.137 122.326 255.137H122.97C125.889 255.137 128.228 255.989 129.988 257.692C131.748 259.395 132.628 261.659 132.628 264.484V288.784H121.36V266.353C121.36 265.73 121.146 265.211 120.716 264.795C120.287 264.38 119.75 264.172 119.107 264.172H118.785C116.853 264.172 114.385 264.588 111.38 265.418V288.784H100.112V266.353C100.112 265.73 99.8977 265.211 99.4685 264.795C99.0392 264.38 98.5027 264.172 97.8588 264.172H97.5368C95.6052 264.172 93.137 264.588 90.1323 265.418V288.784H78.8645V255.761H88.8445L89.4884 258.876C91.5059 257.588 93.5663 256.654 95.6696 256.072C97.8159 255.449 99.6187 255.137 101.078 255.137H101.722Z" fill="#111111"/>
<path d="M151.61 262.926C149.893 262.926 149.034 263.757 149.034 265.418V268.845H159.98V265.418C159.98 263.757 159.122 262.926 157.405 262.926H151.61ZM169.96 288.161C161.676 288.992 154.164 289.407 147.424 289.407C144.506 289.407 142.166 288.556 140.406 286.853C138.646 285.15 137.766 282.886 137.766 280.061V265.107C137.766 261.991 138.668 259.561 140.471 257.817C142.316 256.031 144.849 255.137 148.068 255.137H160.946C164.165 255.137 166.676 256.031 168.479 257.817C170.325 259.561 171.248 261.991 171.248 265.107V276.634H149.034V279.126C149.034 279.75 149.249 280.269 149.678 280.684C150.107 281.1 150.644 281.307 151.288 281.307C155.537 281.307 161.761 280.996 169.96 280.373V288.161Z" fill="#111111"/>
<path d="M204.704 253.58C203.459 253.497 201.807 253.372 199.746 253.206C197.686 253.04 195.905 252.957 194.402 252.957C192.9 252.957 191.934 253.164 191.505 253.58C191.075 253.995 190.861 254.514 190.861 255.137V258.253H201.485V266.665H190.861V288.784H179.593V266.665H175.086V258.253H179.593V253.891C179.593 251.067 180.473 248.803 182.233 247.1C183.993 245.396 186.332 244.545 189.251 244.545C191.87 244.545 194.638 244.628 197.557 244.794C200.476 244.96 202.858 245.085 204.704 245.168V253.58Z" fill="#111111"/>
<path d="M240.774 279.438C240.774 282.553 239.851 285.004 238.005 286.79C236.202 288.535 233.691 289.407 230.472 289.407H215.663C212.443 289.407 209.911 288.535 208.065 286.79C206.262 285.004 205.361 282.553 205.361 279.438V265.107C205.361 261.991 206.262 259.561 208.065 257.817C209.911 256.031 212.443 255.137 215.663 255.137H230.472C233.691 255.137 236.202 256.031 238.005 257.817C239.851 259.561 240.774 261.991 240.774 265.107V279.438ZM229.506 266.042C229.506 264.38 228.647 263.549 226.93 263.549H219.204C217.487 263.549 216.628 264.38 216.628 266.042V278.503C216.628 280.165 217.487 280.996 219.204 280.996H226.93C228.647 280.996 229.506 280.165 229.506 278.503V266.042Z" fill="#111111"/>
<path d="M266.199 264.795C263.495 264.795 260.705 265.418 257.829 266.665V288.784H246.561V255.761H256.541L257.185 259.811C260.876 256.695 264.74 255.137 268.775 255.137H271.672V264.795H266.199Z" fill="#111111"/>
<path d="M300 288.784C295.836 289.2 291.758 289.407 287.766 289.407C284.847 289.407 282.508 288.556 280.748 286.853C278.988 285.15 278.108 282.886 278.108 280.061V264.172H274.245V255.761H278.108L279.396 248.283H289.376V255.761H297.424V264.172H289.376V278.503C289.376 279.126 289.591 279.646 290.02 280.061C290.449 280.477 290.986 280.684 291.63 280.684H300V288.784Z" fill="#111111"/>
<path d="M127.701 102.453H117.42C116.447 102.453 115.706 103.167 115.706 104.105V127.195C115.706 128.133 116.447 128.847 117.42 128.847H127.701C128.674 128.847 129.415 128.133 129.415 127.195V104.105C129.415 103.167 128.674 102.453 127.701 102.453V102.453ZM182.441 102.453H172.16C171.187 102.453 170.446 103.167 170.446 104.105V127.195C170.446 128.133 171.187 128.847 172.16 128.847H182.441C183.414 128.847 184.154 128.133 184.154 127.195V104.105C184.108 103.167 183.367 102.453 182.441 102.453V102.453ZM243.572 46.5815C242.507 45.1524 241.442 43.7232 240.284 42.3387C235.745 36.7561 230.651 31.6201 225.094 26.9753C223.01 25.2335 220.879 23.5811 218.656 21.9733C217.915 21.4373 217.174 20.9461 216.433 20.4101C203.652 11.6565 188.971 5.35933 173.086 2.23305C165.584 0.759239 157.85 0 149.93 0C142.011 0 134.231 0.759239 126.775 2.23305C110.89 5.40399 96.2093 11.7012 83.5663 20.4548C82.8253 20.9461 82.0843 21.482 81.3434 22.0179C79.1204 23.6257 76.9901 25.2782 74.9061 27.02C73.5167 28.1812 72.1737 29.387 70.8307 30.5929C69.4877 31.7987 68.1909 33.0492 66.9405 34.3444C64.3934 36.8901 61.9852 39.6144 59.716 42.3834C58.6045 43.7679 57.493 45.197 56.4279 46.6262C43.0439 64.7586 35.2173 86.8658 35.2173 110.76C35.2173 111.653 35.2636 112.546 35.2636 113.439C35.3099 113.752 35.3099 114.02 35.3099 114.332C35.3562 114.913 35.3562 115.538 35.4025 116.119C35.4025 116.476 35.4488 116.789 35.4488 117.146C35.4488 117.727 35.4952 118.263 35.5415 118.799C35.5878 119.156 35.5878 119.513 35.6341 119.87C35.6804 120.362 35.7267 120.898 35.773 121.434C35.773 121.791 35.8193 122.148 35.8656 122.505C35.912 123.041 36.0046 123.577 36.0509 124.113C36.0972 124.47 36.1435 124.783 36.1898 125.14C36.2361 125.721 36.3288 126.302 36.4214 126.882C36.4677 127.15 36.514 127.463 36.5603 127.731L36.9771 130.276C37.0234 130.544 37.0697 130.768 37.116 131.036C37.255 131.616 37.3476 132.242 37.4865 132.822C37.5792 133.179 37.6255 133.537 37.7181 133.894C37.8107 134.341 37.9497 134.832 38.0423 135.323C38.1349 135.725 38.2275 136.082 38.3201 136.484C38.4128 136.931 38.5054 137.378 38.6443 137.824C38.7369 138.226 38.8759 138.628 38.9685 139.03C39.1074 139.477 39.2001 139.879 39.339 140.325C39.4779 140.727 39.5705 141.129 39.7095 141.531C39.8021 141.933 39.941 142.38 40.08 142.782C40.2189 143.183 40.3115 143.585 40.4505 143.987C40.5894 144.434 40.7283 144.836 40.8673 145.238C41.1451 145.952 41.3767 146.712 41.6546 147.426C41.8398 147.873 41.9787 148.275 42.1177 148.677C42.2566 149.123 42.4419 149.57 42.6271 150.017C42.766 150.374 42.905 150.687 43.0439 151.044L43.5996 152.384C43.7386 152.696 43.8775 153.054 44.0164 153.366C44.2017 153.813 44.4332 154.259 44.6185 154.706L45.0353 155.644C45.2668 156.091 45.4521 156.537 45.6836 156.984C45.8226 157.296 45.9615 157.564 46.1004 157.877C46.332 158.324 46.5636 158.815 46.7951 159.261C46.8877 159.529 47.0267 159.753 47.1656 160.021C47.4435 160.512 47.675 161.003 47.9529 161.495C47.9992 161.584 48.0455 161.629 48.0918 161.718C49.1107 163.549 50.1295 165.38 51.241 167.166C51.3336 167.345 51.4726 167.524 51.5652 167.702C51.8894 168.194 52.1672 168.685 52.4914 169.176C52.6303 169.4 52.7693 169.578 52.9082 169.801C53.1861 170.293 53.5103 170.739 53.8344 171.231C53.9734 171.454 54.1123 171.633 54.2512 171.856C54.5754 172.347 54.8996 172.794 55.2238 173.285C55.3164 173.464 55.4553 173.642 55.5943 173.821C55.9184 174.312 56.2889 174.804 56.6594 175.295C56.752 175.384 56.7984 175.518 56.891 175.607C74.2577 198.697 100.609 215.133 130.989 220.001C131.406 220.045 131.776 220.135 132.193 220.179C132.656 220.269 133.166 220.358 133.629 220.403C134.092 220.447 134.509 220.536 134.926 220.581C135.389 220.67 135.852 220.715 136.315 220.76C136.732 220.804 137.195 220.849 137.658 220.894C138.121 220.938 138.538 220.983 139.001 221.028C139.464 221.072 139.973 221.117 140.437 221.162C140.853 221.206 141.27 221.206 141.687 221.251C142.196 221.296 142.752 221.296 143.262 221.34C143.632 221.34 144.049 221.385 144.419 221.385C145.021 221.385 145.623 221.43 146.226 221.43C146.55 221.474 146.874 221.474 147.198 221.474C148.124 221.519 149.051 221.519 149.977 221.519C150.903 221.519 151.829 221.474 152.755 221.474C153.08 221.474 153.404 221.43 153.728 221.43C154.33 221.43 154.932 221.43 155.534 221.385C155.905 221.385 156.321 221.34 156.692 221.34C157.201 221.296 157.757 221.296 158.266 221.251C158.683 221.251 159.1 221.206 159.517 221.162C159.98 221.117 160.489 221.072 160.953 221.028C161.416 220.983 161.832 220.938 162.296 220.894C162.712 220.849 163.175 220.804 163.639 220.76C164.102 220.715 164.565 220.626 165.028 220.581C165.491 220.536 165.908 220.447 166.325 220.403C166.788 220.313 167.297 220.269 167.76 220.179C168.177 220.135 168.548 220.045 168.964 220.001C199.345 215.088 225.696 198.697 243.109 174.268C243.201 174.178 243.248 174.044 243.34 173.955C243.711 173.464 244.035 172.972 244.406 172.481C244.498 172.303 244.637 172.124 244.776 171.945C245.1 171.454 245.424 171.007 245.749 170.516C245.887 170.293 246.026 170.114 246.165 169.891C246.443 169.4 246.767 168.953 247.092 168.462C247.231 168.238 247.369 168.06 247.508 167.836C247.833 167.345 248.11 166.854 248.435 166.363C248.527 166.184 248.666 166.005 248.759 165.827C249.87 164.04 250.889 162.209 251.908 160.378C251.954 160.289 252.001 160.244 252.047 160.155C252.325 159.663 252.556 159.172 252.834 158.681C252.927 158.413 253.066 158.19 253.205 157.922C253.436 157.475 253.668 156.984 253.899 156.537C254.038 156.225 254.177 155.957 254.316 155.644C254.548 155.197 254.779 154.751 254.964 154.304L255.381 153.366C255.613 152.92 255.798 152.473 255.983 152.026C256.122 151.714 256.261 151.356 256.4 151.044L256.956 149.704C257.095 149.347 257.234 149.034 257.373 148.677C257.558 148.23 257.697 147.784 257.882 147.337C258.067 146.89 258.206 146.488 258.345 146.086C258.623 145.372 258.901 144.613 259.133 143.898C259.271 143.451 259.41 143.049 259.549 142.648C259.688 142.246 259.781 141.844 259.92 141.442C260.012 141.04 260.151 140.593 260.29 140.191C260.429 139.789 260.568 139.387 260.661 138.985C260.8 138.539 260.892 138.137 261.031 137.69C261.124 137.288 261.263 136.886 261.355 136.484C261.448 136.038 261.587 135.591 261.68 135.144C261.772 134.743 261.865 134.385 261.958 133.983C262.05 133.537 262.189 133.045 262.282 132.554C262.374 132.197 262.421 131.84 262.513 131.482C262.652 130.902 262.791 130.276 262.884 129.696C262.93 129.428 262.976 129.205 263.023 128.937L263.439 126.391C263.486 126.123 263.532 125.81 263.578 125.542C263.625 124.962 263.717 124.381 263.81 123.801C263.856 123.443 263.903 123.131 263.949 122.773C263.995 122.237 264.088 121.701 264.134 121.166C264.134 120.808 264.18 120.451 264.227 120.094C264.273 119.602 264.319 119.066 264.366 118.531C264.412 118.173 264.412 117.816 264.458 117.459C264.505 118.218 264.505 117.682 264.551 117.146C264.551 116.789 264.597 116.476 264.597 116.119C264.644 115.538 264.69 114.913 264.69 114.332C264.736 114.02 264.736 113.752 264.736 113.439C264.782 112.546 264.782 111.653 264.782 110.76C264.782 86.8658 256.956 64.7586 243.572 46.5815ZM238.848 162.343C234.495 169.266 229.308 175.697 223.288 181.503C213.747 190.703 202.679 197.893 190.314 202.94C183.877 205.53 177.254 207.54 170.446 208.835V174.982C170.446 148.811 129.415 148.811 129.415 174.982V208.835C122.607 207.54 115.984 205.575 109.547 202.94C97.1818 197.893 86.1134 190.703 76.5733 181.503C70.5528 175.697 65.366 169.266 61.0127 162.343V130.5C61.0127 129.562 61.7537 128.847 62.7262 128.847H72.961C73.9335 128.847 74.6745 129.562 74.6745 130.5V142.022H88.3827V77.7103C88.3827 76.7724 89.1237 76.0578 90.0962 76.0578H100.331C101.304 76.0578 102.045 76.7724 102.045 77.7103V89.2775H115.706V77.7103C115.706 76.7724 116.447 76.0578 117.42 76.0578H127.701C128.674 76.0578 129.415 76.7724 129.415 77.7103V89.2775H143.076V77.7103C143.076 75.5666 146.087 76.0578 147.476 76.0578V35.7735C145.438 34.8803 144.049 32.7812 144.049 30.6375C144.049 23.1344 155.812 23.1344 155.812 30.6375C155.812 32.7812 154.423 34.8357 152.385 35.7735V37.5153C155.303 36.8901 158.266 36.4881 161.277 36.4881C165.63 36.4881 169.798 38.0513 173.457 38.0513C176.791 38.0513 180.496 36.4881 182.441 36.4881C183.414 36.4881 184.154 37.2027 184.154 38.1406V59.7565C184.154 62.2576 175.494 62.6595 173.781 62.6595C169.798 62.6595 166.093 61.0964 162.018 61.0964C158.776 61.0964 155.488 61.6323 152.385 62.3469V76.0578C153.774 76.0578 156.784 75.5666 156.784 77.7103V89.2775H170.446V77.7103C170.446 76.7724 171.187 76.0578 172.16 76.0578H182.441C183.414 76.0578 184.154 76.7724 184.154 77.7103V89.2775H197.816V77.7103C197.816 76.7724 198.557 76.0578 199.53 76.0578H209.765C210.737 76.0578 211.478 76.7724 211.478 77.7103V142.022H225.14V130.5C225.14 129.562 225.881 128.847 226.854 128.847H237.135C238.107 128.847 238.848 129.562 238.848 130.5V162.343Z" fill="#111111"/>
</svg>
