<svg width="932" height="932" viewBox="0 0 932 932" fill="none" xmlns="http://www.w3.org/2000/svg">
<path d="M167.652 6.02909C164.054 9.62703 158.657 27.4368 153.979 49.9239C141.566 111.449 139.947 180.349 149.662 238.995C152.18 254.107 162.255 295.843 168.731 317.61C172.689 331.282 169.271 330.023 146.783 310.235C130.773 296.023 126.095 294.224 121.418 300.34C118.36 304.298 118 308.615 118 345.494C118 403.421 121.418 451.993 128.974 497.147C138.328 554.894 153.62 607.244 164.953 620.916C175.747 633.869 203.811 650.06 233.674 660.314C248.965 665.711 252.023 666.07 273.611 666.07C292.86 666.25 299.156 665.531 309.77 662.113C325.061 657.435 331.717 657.255 336.754 661.393C342.331 665.89 344.67 671.287 344.67 680.102C344.67 686.399 343.591 688.917 339.813 692.695C332.797 699.171 329.019 700.79 311.929 704.928C283.145 711.764 243.748 708.886 218.202 697.912C207.768 693.415 200.753 693.055 200.753 696.833C200.753 703.849 228.457 748.643 251.483 779.405C319.664 869.713 403.856 928 466.28 928C488.587 928 519.889 918.286 546.694 902.994C563.964 892.92 600.663 865.756 617.573 850.105C657.87 813.046 693.31 767.712 721.734 717.161C735.406 692.695 733.967 690.356 710.04 698.632C690.252 705.648 673.701 708.526 653.912 708.526C633.224 708.526 611.637 704.748 600.303 698.991C585.732 691.616 581.774 675.605 591.848 664.811C598.504 657.615 604.081 657.075 620.632 661.933C640.6 667.869 670.103 668.049 691.331 662.292C717.416 655.097 752.496 636.747 765.089 623.615C772.105 616.239 774.803 610.302 784.877 577.201C804.666 512.079 815.46 424.469 813.841 339.558C813.301 307.716 812.941 303.758 809.883 300.34C807.904 298.181 804.846 296.562 802.867 296.562C801.068 296.562 793.153 302.319 785.597 309.335C770.665 323.547 764.369 328.224 762.57 326.605C762.03 326.065 763.649 317.97 766.348 308.795C789.555 226.762 794.772 147.968 781.819 72.411C775.523 36.0719 769.226 12.1456 764.549 7.46824C755.914 -1.1668 750.877 4.41006 746.919 27.7966C737.564 81.7657 716.696 143.65 695.109 181.249C669.923 225.143 630.886 265.44 595.266 284.15C577.996 293.324 562.885 289.546 558.567 274.975C555.509 264.901 559.467 256.805 570.62 250.149C604.981 230.001 633.224 205.894 646.537 185.926C657.151 169.915 653.912 164.518 621.351 144.909C584.832 122.782 542.017 108.21 501.36 103.893C470.058 100.655 429.041 102.454 403.136 108.39C361.76 117.925 336.934 127.639 307.791 145.989C283.685 161.28 279.907 164.698 279.907 171.534C279.907 185.026 314.807 220.826 348.268 241.514C359.242 248.35 369.855 255.906 371.654 258.424C381.369 270.657 370.215 289.367 353.305 289.367C342.151 289.187 309.23 267.599 286.563 245.292C246.986 206.614 219.822 156.962 198.954 85.3635C193.017 64.6754 185.641 32.8337 183.662 18.9816C181.863 5.84916 174.128 -0.267296 167.652 6.02909ZM207.049 414.395C216.943 420.151 245.367 430.765 286.203 443.898C307.251 450.554 324.881 457.39 331.897 461.528C347.908 470.882 364.818 487.073 375.432 503.264C384.787 517.655 398.279 549.317 398.999 559.392L399.538 565.328L382.448 570.365C338.194 583.678 292.5 580.439 259.219 561.91C218.023 538.883 190.318 494.449 181.863 437.781C180.424 427.887 179.165 415.114 179.165 409.358V398.924L189.419 404.5C195.176 407.739 203.091 412.056 207.049 414.395ZM750.337 439.22C742.961 481.856 729.469 510.1 703.744 537.444C666.325 576.842 608.039 588.895 547.414 570.005C529.784 564.429 530.323 565.688 536.98 545.36C546.694 516.396 555.509 501.105 573.139 483.655C592.748 463.866 604.441 457.75 652.833 442.099C691.691 429.326 720.294 417.633 740.443 405.94L752.136 399.283L752.676 410.977C753.036 417.453 751.956 430.046 750.337 439.22Z" fill="#111111"/>
</svg>
