<svg width="64" height="64" viewBox="0 0 64 64" fill="none" xmlns="http://www.w3.org/2000/svg">
<rect width="64" height="64" rx="5" fill="#111111"/>
<path d="M3 8.73316C3 5.56682 6.56223 3 10.9565 3L52.0435 3C56.4378 3 60 5.56682 60 8.73315V54.2668C60 57.4332 56.4378 60 52.0435 60H10.9565C6.56223 60 3 57.4332 3 54.2668L3 8.73316Z" fill="white"/>
<path d="M24.9716 54.8069C24.3618 54.8069 23.5578 54.6129 22.5599 54.2248C21.5342 53.8367 20.7857 53.31 20.3422 52.6447C19.2333 51.12 18.6512 48.5142 18.5403 44.7996C18.5126 43.5799 18.4849 42.5265 18.4849 41.6394C18.4849 37.1485 18.5126 32.9904 18.568 29.1649C18.5957 25.3671 18.6235 21.5415 18.6235 17.6883C18.6235 16.5517 18.6512 15.6924 18.7066 15.0825C18.8452 13.0589 19.4828 11.451 20.6471 10.259C21.7837 9.06701 23.447 8.48486 25.5815 8.48486C26.4686 8.48486 27.522 8.70663 28.7694 9.15017C29.407 9.39966 29.8505 9.51055 30.1278 9.51055C31.0426 9.51055 32.0405 9.70459 33.1216 10.0927C33.8978 10.3699 34.674 10.7303 35.3948 11.1738C38.2501 12.7539 40.4677 14.9439 42.0756 17.7437C43.7111 20.5436 44.515 23.5652 44.515 26.8086C44.515 29.4975 43.8775 32.1587 42.6023 34.7368C41.6875 36.5941 40.2737 38.6732 38.3609 41.0018C38.1669 41.2236 37.9728 41.4453 37.8065 41.6948C36.864 42.97 35.9492 43.9957 35.0344 44.7996C34.2305 45.4926 33.3157 46.0193 32.2346 46.3797C32.2623 46.7955 32.3177 47.2391 32.3732 47.6826C32.4286 48.1261 32.4563 48.5697 32.4563 48.9855C32.4563 50.9814 31.6801 52.5061 30.1 53.504C28.7694 54.3634 27.0507 54.8069 24.9716 54.8069ZM24.9716 52.0348C28.1041 52.0348 29.6842 51.0091 29.6842 48.9855C29.6842 48.6251 29.6565 48.1538 29.6011 47.5994C29.5179 47.045 29.4902 46.546 29.4902 46.1025C29.4902 45.354 29.6011 44.855 29.8505 44.5778C30.1 44.3283 30.405 44.1066 30.8208 43.9402C31.2089 43.8016 31.6524 43.6076 32.1791 43.3858C32.8999 43.1086 33.7592 42.3047 34.8126 40.9741C35.2007 40.4751 35.672 39.8929 36.2264 39.2276C38.1669 36.8713 39.5807 34.7368 40.44 32.7686C41.2994 30.8281 41.7429 28.8322 41.7429 26.8086C41.7429 24.0364 41.0499 21.4861 39.6916 19.1298C38.3055 16.7458 36.4205 14.9162 34.0364 13.5856C32.5395 12.7262 31.2366 12.2827 30.1278 12.2827C29.6011 12.2827 28.8526 12.1163 27.9101 11.756C27.5497 11.6451 27.1616 11.5342 26.8012 11.4233C26.4131 11.3124 25.9973 11.257 25.5815 11.257C24.7498 11.257 24.0014 11.4233 23.3361 11.7282C22.5322 12.1163 21.9777 12.7816 21.7282 13.7519C21.5065 14.4449 21.4233 15.7201 21.4233 17.6328V19.3793C21.4233 22.0682 21.3956 25.8106 21.3401 30.5786C21.2847 35.3467 21.257 38.7009 21.257 40.6691C21.257 43.7185 21.3679 46.0193 21.5619 47.5717C21.8114 49.7894 22.3104 51.0646 23.0311 51.4249C23.5578 51.7022 24.2231 51.8962 24.9716 52.0348Z" fill="white"/>
<path d="M24.9716 52.0348C28.1041 52.0348 29.6842 51.0091 29.6842 48.9855C29.6842 48.6251 29.6565 48.1538 29.6011 47.5994C29.5179 47.045 29.4902 46.546 29.4902 46.1025C29.4902 45.354 29.6011 44.855 29.8505 44.5778C30.1 44.3283 30.405 44.1066 30.8208 43.9402C31.2089 43.8016 31.6524 43.6076 32.1791 43.3858C32.8999 43.1086 33.7592 42.3047 34.8126 40.9741C35.2007 40.4751 35.672 39.8929 36.2264 39.2276C38.1669 36.8713 39.5807 34.7368 40.44 32.7686C41.2994 30.8281 41.7429 28.8322 41.7429 26.8086C41.7429 24.0364 41.0499 21.4861 39.6916 19.1298C38.3055 16.7458 36.4205 14.9162 34.0364 13.5856C32.5395 12.7262 31.2366 12.2827 30.1278 12.2827C29.6011 12.2827 28.8526 12.1163 27.9101 11.756C27.5497 11.6451 27.1616 11.5342 26.8012 11.4233C26.4131 11.3124 25.9973 11.257 25.5815 11.257C24.7498 11.257 24.0014 11.4233 23.3361 11.7282C22.5322 12.1163 21.9777 12.7816 21.7282 13.7519C21.5065 14.4449 21.4233 15.7201 21.4233 17.6328V19.3793C21.4233 22.0682 21.3956 25.8106 21.3401 30.5786C21.2847 35.3467 21.257 38.7009 21.257 40.6691C21.257 43.7185 21.3679 46.0193 21.5619 47.5717C21.8114 49.7894 22.3104 51.0646 23.0311 51.4249C23.5578 51.7022 24.2231 51.8962 24.9716 52.0348Z" fill="white"/>
<path fill-rule="evenodd" clip-rule="evenodd" d="M25.5815 8.96983C23.5332 8.96983 22.0154 9.52673 20.9981 10.5937L20.9961 10.5958L20.9941 10.5979C19.9284 11.689 19.3232 13.1782 19.1905 15.1157L19.1901 15.1211L19.1896 15.1265C19.1362 15.7144 19.1084 16.5565 19.1084 17.6883C19.1084 21.5436 19.0807 25.3709 19.053 29.1684L19.053 29.1719H19.0529C18.9975 32.9947 18.9698 37.1505 18.9698 41.6394C18.9698 42.3971 18.9902 43.2777 19.0136 44.2887C19.0174 44.4514 19.0213 44.6174 19.0251 44.7869C19.1357 48.4861 19.7177 50.9616 20.7344 52.3595L20.7402 52.3675L20.7457 52.3757C21.1143 52.9286 21.7628 53.4048 22.7315 53.7713L22.7357 53.7729C23.7134 54.1531 24.4511 54.3221 24.9717 54.3221C26.9839 54.3221 28.6044 53.8928 29.837 53.0967L29.8391 53.0954L29.8411 53.0941C31.265 52.1948 31.9715 50.8344 31.9715 48.9855C31.9715 48.5906 31.9451 48.1672 31.892 47.7428L31.8911 47.7351C31.8363 47.297 31.7794 46.8418 31.7508 46.412L31.7258 46.0382L32.0813 45.9197C33.1021 45.5794 33.9608 45.0846 34.7161 44.4338C35.5957 43.6606 36.485 42.6661 37.4099 41.4157C37.5923 41.1439 37.8012 40.9052 37.9875 40.6923L37.9911 40.6882C39.8882 38.3781 41.2757 36.3329 42.1673 34.5226L42.1677 34.5219C43.4118 32.0066 44.0302 29.4186 44.0302 26.8086C44.0302 23.6497 43.2484 20.7127 41.6569 17.9884L41.6551 17.9853C40.0913 15.2621 37.9378 13.1354 35.16 11.5981L35.1502 11.5927L35.1407 11.5868C34.4518 11.1629 33.7066 10.8166 32.9586 10.5494L32.9579 10.5491C31.9164 10.1753 30.9745 9.99551 30.1278 9.99551C29.7543 9.99551 29.2403 9.85472 28.6 9.60461C27.3838 9.17276 26.3909 8.96983 25.5815 8.96983ZM20.2982 9.92231C21.554 8.60673 23.362 8 25.5815 8C26.5448 8 27.6564 8.23982 28.9319 8.69333L28.9391 8.69588L28.9462 8.69865C29.5777 8.94576 29.9483 9.02568 30.1278 9.02568C31.1106 9.02568 32.1645 9.23395 33.2852 9.63621C34.086 9.92225 34.8896 10.2946 35.6394 10.755C38.5669 12.3773 40.8453 14.6282 42.4953 17.5009C44.1743 20.3757 45 23.4814 45 26.8086C45 29.5764 44.3433 32.3108 43.0371 34.9516C42.0999 36.8543 40.6615 38.9652 38.7357 41.3096L38.7309 41.3155L38.7259 41.3212C38.5286 41.5466 38.3559 41.7451 38.21 41.9639L38.2035 41.9736L38.1965 41.9831C37.2394 43.278 36.3018 44.3314 35.3545 45.1639L35.3528 45.1654L35.3511 45.1669C34.5902 45.8228 33.7351 46.338 32.7487 46.7115C32.7771 47.0037 32.8152 47.3088 32.8544 47.6225C32.9122 48.0852 32.9413 48.5488 32.9413 48.9855C32.9413 51.1276 32.0961 52.8159 30.3614 53.9126C28.933 54.8345 27.1167 55.2919 24.9717 55.2919C24.273 55.2919 23.4036 55.0731 22.3864 54.6777C21.3085 54.2695 20.463 53.6951 19.9443 52.922C18.7474 51.2701 18.1668 48.5373 18.0557 44.8141L18.0556 44.8107C18.0517 44.6416 18.0479 44.4756 18.0441 44.3126C18.0207 43.3029 18 42.4093 18 41.6394C18 37.1473 18.0277 32.9874 18.0832 29.1596C18.1109 25.3621 18.1386 21.5389 18.1386 17.6883C18.1386 16.5503 18.1662 15.6754 18.2233 15.044C18.3685 12.9378 19.0377 11.2139 20.2982 9.92231ZM23.1341 11.2875C23.8658 10.9521 24.6835 10.7721 25.5815 10.7721C26.0395 10.7721 26.5004 10.8331 26.9345 10.9571L26.9392 10.9584L26.9439 10.9599C27.1212 11.0145 27.3059 11.0692 27.4934 11.1247L27.4947 11.1251C27.681 11.1803 27.8701 11.2364 28.0527 11.2925L28.0682 11.2973L28.0833 11.3031C29.003 11.6547 29.6872 11.7978 30.1278 11.7978C31.3577 11.7978 32.7466 12.2863 34.2753 13.1636C36.7328 14.5357 38.6807 16.4263 40.1108 18.8861L40.1117 18.8877C41.5123 21.3172 42.2279 23.951 42.2279 26.8086C42.2279 28.9044 41.7683 30.9665 40.884 32.9638C39.9998 34.9886 38.5559 37.1618 36.6008 39.5359L36.599 39.5381C36.0469 40.2007 35.5792 40.7784 35.1954 41.2718L35.1929 41.2751C34.1435 42.6007 33.2153 43.5037 32.3608 43.8355C32.2661 43.8754 32.1732 43.9148 32.0821 43.9534C31.6833 44.1224 31.3193 44.2767 30.993 44.3937C30.6542 44.5305 30.4083 44.7083 30.2041 44.9102C30.0892 45.0457 29.9751 45.3764 29.9751 46.1025C29.9751 46.5254 30.0015 47.0001 30.0806 47.5275L30.0824 47.5393L30.0836 47.5512C30.14 48.1148 30.1692 48.6033 30.1692 48.9855C30.1692 50.1465 29.7032 51.0693 28.7662 51.6761C27.8647 52.2599 26.5757 52.5198 24.9717 52.5198H24.9271L24.8834 52.5117C24.1135 52.3691 23.3964 52.1644 22.8096 51.8563C22.2902 51.5944 21.9283 51.049 21.6671 50.3686C21.4005 49.6739 21.2074 48.7562 21.0804 47.6289C20.8829 46.0472 20.7721 43.7242 20.7721 40.6692C20.7721 38.6979 20.7999 35.3411 20.8553 30.573C20.9107 25.8057 20.9384 22.0655 20.9384 19.3793V17.6329C20.9384 15.7464 21.0166 14.3977 21.2621 13.6178C21.5473 12.5226 22.1908 11.7427 23.1253 11.2916L23.1297 11.2895L23.1341 11.2875ZM23.5426 12.1671C22.8754 12.4906 22.413 13.0362 22.1979 13.8727L22.1944 13.8863L22.1901 13.8997C21.9955 14.508 21.9083 15.7049 21.9083 17.6329V19.3793C21.9083 22.0711 21.8805 25.8156 21.8251 30.5843C21.7696 35.3524 21.7419 38.7041 21.7419 40.6692C21.7419 43.7109 21.8528 45.9886 22.0431 47.5116L22.0435 47.5146L22.0438 47.5175C22.1664 48.6066 22.3474 49.4343 22.5726 50.0211C22.8027 50.6208 23.0492 50.8919 23.248 50.9913L23.2526 50.9935L23.257 50.9959C23.7134 51.2361 24.3101 51.4164 25.0163 51.5499C26.5209 51.545 27.574 51.2928 28.2391 50.862C28.8753 50.45 29.1994 49.8482 29.1994 48.9855C29.1994 48.6494 29.1735 48.1995 29.1198 47.6594C29.0339 47.0828 29.0053 46.5635 29.0053 46.1025C29.0053 45.3463 29.1084 44.6777 29.4902 44.2535L29.4987 44.244L29.5077 44.235C29.7988 43.9439 30.1579 43.6832 30.6407 43.4901L30.6492 43.4867L30.6577 43.4836C30.9574 43.3766 31.2913 43.2351 31.6915 43.0656C31.7874 43.0249 31.8871 42.9827 31.991 42.9389L31.998 42.936L32.0051 42.9333C32.5898 42.7084 33.3776 42.0055 34.4313 40.6746C34.8232 40.1708 35.2973 39.5852 35.853 38.9183C37.778 36.5807 39.1613 34.4856 39.9957 32.5746L39.9967 32.5723C40.8307 30.689 41.2581 28.7597 41.2581 26.8086C41.2581 24.1223 40.5878 21.6557 39.272 19.3729C37.9305 17.0658 36.1094 15.2979 33.8002 14.009L33.7976 14.0076L33.7951 14.0062C32.3309 13.1656 31.1149 12.7676 30.1278 12.7676C29.5182 12.7676 28.7109 12.58 27.7522 12.2148C27.5796 12.1618 27.4001 12.1086 27.2179 12.0546L27.2165 12.0542C27.032 11.9995 26.8446 11.944 26.6635 11.8883C26.3227 11.7914 25.9535 11.7419 25.5815 11.7419C24.8182 11.7419 24.1404 11.8938 23.5426 12.1671Z" fill="#111111"/>
<path d="M29.407 34.8754C29.4902 36.1228 29.712 36.7604 30.0723 36.7604C30.4327 36.7604 31.0149 36.0119 31.791 34.4873C32.5672 32.9903 33.1217 31.5488 33.482 30.2182C33.6761 29.4143 33.787 28.5272 33.787 27.557C33.787 26.1155 33.5098 24.7017 32.9831 23.2879C32.4286 21.8464 31.7356 20.6821 30.8485 19.7673C30.4327 19.3515 30.1001 19.1575 29.8506 19.1575C29.4902 19.1575 29.2961 19.7673 29.2961 20.9593C29.3239 23.4265 29.3239 24.7849 29.3516 25.0344V27.9451H29.3793C29.3793 32.2419 29.3793 34.5704 29.407 34.8754Z" fill="#111111"/>
</svg>
