<svg width="48" height="48" viewBox="0 0 48 48" fill="none" xmlns="http://www.w3.org/2000/svg">
<rect width="19.9398" height="17.1818" transform="matrix(-1 0 0 1 38.2333 23.1691)" fill="white"/>
<path d="M9.86863 21.912C10.2542 21.2864 11.0254 20.2854 11.9893 18.9091C13.0175 17.5327 14.1742 16.0313 15.331 14.2796C16.4877 12.4653 17.7729 10.5885 18.9297 8.46139C20.0221 6.33431 20.9861 4.20723 21.693 1.95503C21.8858 1.26686 22.2713 0.703812 22.7854 0.391007C23.2995 0.0782014 23.9422 -0.0469208 24.5848 0.0156403C25.1632 -0.0469208 25.7415 0.0782014 26.3199 0.391007C26.834 0.703812 27.2838 1.26686 27.4766 1.95503C28.1835 4.20723 29.1475 6.33431 30.2399 8.46139C31.3324 10.5885 32.5534 12.4653 33.7101 14.2796C34.9311 16.0313 36.0878 17.5327 37.0518 18.9091C38.08 20.2854 38.7869 21.2864 39.2367 21.912C40.0721 23.1632 40.8433 24.6647 41.2931 26.1662C41.7429 27.7302 42 29.2317 42 30.9834C42 33.3607 41.4859 35.5503 40.5862 37.6149C39.7508 39.7419 38.5298 41.4936 36.9232 43.0577C35.2524 44.6217 33.4531 45.8104 31.3324 46.6862C29.2117 47.5621 26.9625 48 24.5848 48C22.1428 48 19.8936 47.5621 17.7087 46.6862C15.588 45.8104 13.7887 44.6217 12.1821 43.0577C10.5755 41.4936 9.35453 39.7419 8.51912 37.6149C7.61944 35.5503 7.10534 33.3607 7.10534 30.9834C7.10534 29.2317 7.42665 27.7302 7.87649 26.1662C8.32633 24.6647 9.03322 23.1632 9.86863 21.912ZM30.0471 38.9912C31.2039 38.9912 32.2963 38.6158 33.0675 37.8025C33.9029 36.9892 34.3527 35.9257 34.3527 34.7996C34.3527 33.9238 34.0957 33.173 33.6458 32.4849C33.5173 32.3597 33.3888 32.1095 33.1317 31.7967C32.8747 31.4839 32.4891 31.0459 32.2321 30.608C31.9108 30.1701 31.6537 29.6696 31.3966 29.1691C31.1396 28.6686 30.8825 28.1056 30.754 27.5425C30.6255 27.1046 30.3684 26.9169 30.0471 27.042C29.6616 26.9795 29.3402 27.1046 29.276 27.5425C29.0832 28.043 28.8904 28.6686 28.5691 29.1691C28.312 29.6696 27.9907 30.1701 27.7337 30.608C27.4124 31.0459 27.091 31.4839 26.834 31.7967C26.5769 32.1095 26.4484 32.3597 26.3199 32.4849C25.8701 33.1105 25.613 33.9238 25.613 34.7996C25.613 35.9257 26.1271 36.9892 26.9625 37.8025C27.7337 38.6158 28.8261 38.9912 30.0471 38.9912Z" fill="black"/>
</svg>
